<mxfile host="Electron" modified="2023-08-10T09:19:01.607Z" agent="Mozilla/5.0 (Macintosh; Intel Mac OS X 10_15_7) AppleWebKit/537.36 (KHTML, like Gecko) draw.io/21.6.5 Chrome/114.0.5735.243 Electron/25.3.1 Safari/537.36" etag="94EEMFpwovdNcTtVaWFH" version="21.6.5" type="device">
  <diagram name="Page-1" id="l_U9TE8VM8Wb_cqC_3wU">
    <mxGraphModel dx="1179" dy="876" grid="1" gridSize="10" guides="1" tooltips="1" connect="1" arrows="1" fold="1" page="1" pageScale="1" pageWidth="1169" pageHeight="827" math="0" shadow="0">
      <root>
        <mxCell id="0" />
        <mxCell id="1" parent="0" />
        <mxCell id="bcFj_FvfjHGWvFLV_pOK-1" value="" style="rounded=1;whiteSpace=wrap;html=1;" parent="1" vertex="1">
          <mxGeometry x="210" y="90" width="640" height="430" as="geometry" />
        </mxCell>
        <mxCell id="bcFj_FvfjHGWvFLV_pOK-2" value="&lt;font style=&quot;font-size: 15px;&quot;&gt;&lt;b&gt;Data steward&lt;/b&gt;&lt;/font&gt;" style="text;html=1;strokeColor=none;fillColor=none;align=center;verticalAlign=middle;whiteSpace=wrap;rounded=0;" parent="1" vertex="1">
          <mxGeometry x="230" y="100" width="130" height="30" as="geometry" />
        </mxCell>
        <mxCell id="bcFj_FvfjHGWvFLV_pOK-3" value="&lt;b&gt;&lt;font style=&quot;font-size: 16px;&quot;&gt;Agent&lt;/font&gt;&lt;/b&gt;" style="ellipse;whiteSpace=wrap;html=1;" parent="1" vertex="1">
          <mxGeometry x="470" y="480" width="120" height="80" as="geometry" />
        </mxCell>
        <mxCell id="bcFj_FvfjHGWvFLV_pOK-5" value="" style="rounded=1;whiteSpace=wrap;html=1;dashed=1;" parent="1" vertex="1">
          <mxGeometry x="420" y="705" width="220" height="80" as="geometry" />
        </mxCell>
        <mxCell id="bcFj_FvfjHGWvFLV_pOK-10" style="edgeStyle=orthogonalEdgeStyle;rounded=0;orthogonalLoop=1;jettySize=auto;html=1;entryX=0.5;entryY=1;entryDx=0;entryDy=0;startArrow=classic;startFill=1;fillColor=#fff2cc;strokeColor=#d6b656;strokeWidth=2;" parent="1" source="bcFj_FvfjHGWvFLV_pOK-6" target="bcFj_FvfjHGWvFLV_pOK-3" edge="1">
          <mxGeometry relative="1" as="geometry" />
        </mxCell>
        <mxCell id="bcFj_FvfjHGWvFLV_pOK-12" style="edgeStyle=orthogonalEdgeStyle;rounded=0;orthogonalLoop=1;jettySize=auto;html=1;entryX=0.5;entryY=0;entryDx=0;entryDy=0;startArrow=classic;startFill=1;fillColor=#fff2cc;strokeColor=#d6b656;strokeWidth=2;" parent="1" source="bcFj_FvfjHGWvFLV_pOK-6" target="bcFj_FvfjHGWvFLV_pOK-7" edge="1">
          <mxGeometry relative="1" as="geometry" />
        </mxCell>
        <mxCell id="bcFj_FvfjHGWvFLV_pOK-6" value="" style="strokeWidth=1;outlineConnect=0;dashed=0;align=center;html=1;fontSize=8;shape=mxgraph.eip.messageChannel;verticalLabelPosition=bottom;labelBackgroundColor=#ffffff;verticalAlign=top;rotation=90;" parent="1" vertex="1">
          <mxGeometry x="480" y="635" width="100" height="20" as="geometry" />
        </mxCell>
        <mxCell id="bcFj_FvfjHGWvFLV_pOK-7" value="&lt;font style=&quot;font-size: 15px;&quot;&gt;&lt;b&gt;Rest of DYNAMOS / Other data stewards&lt;/b&gt;&lt;/font&gt;" style="text;html=1;strokeColor=none;fillColor=none;align=center;verticalAlign=middle;whiteSpace=wrap;rounded=0;" parent="1" vertex="1">
          <mxGeometry x="455" y="732.5" width="150" height="25" as="geometry" />
        </mxCell>
        <mxCell id="bcFj_FvfjHGWvFLV_pOK-9" value="&lt;font style=&quot;font-size: 15px;&quot;&gt;&lt;b&gt;AMQP&lt;/b&gt;&lt;/font&gt;" style="text;html=1;strokeColor=none;fillColor=none;align=center;verticalAlign=middle;whiteSpace=wrap;rounded=0;" parent="1" vertex="1">
          <mxGeometry x="560" y="620" width="45" height="25" as="geometry" />
        </mxCell>
        <mxCell id="MKfOO1UCG0V61yar5A6D-1" value="" style="endArrow=classic;html=1;rounded=0;fillColor=#fff2cc;strokeColor=#d6b656;strokeWidth=2;" parent="1" edge="1">
          <mxGeometry width="50" height="50" relative="1" as="geometry">
            <mxPoint x="230" y="620" as="sourcePoint" />
            <mxPoint x="300" y="620" as="targetPoint" />
          </mxGeometry>
        </mxCell>
        <mxCell id="MKfOO1UCG0V61yar5A6D-2" value="&lt;font style=&quot;font-size: 15px;&quot;&gt;&lt;b&gt;AMQP&lt;/b&gt;&lt;/font&gt;" style="text;html=1;strokeColor=none;fillColor=none;align=center;verticalAlign=middle;whiteSpace=wrap;rounded=0;" parent="1" vertex="1">
          <mxGeometry x="306" y="606" width="45" height="25" as="geometry" />
        </mxCell>
        <mxCell id="MKfOO1UCG0V61yar5A6D-5" value="" style="endArrow=classic;html=1;rounded=0;strokeWidth=2;fillColor=#dae8fc;strokeColor=#6c8ebf;" parent="1" edge="1">
          <mxGeometry width="50" height="50" relative="1" as="geometry">
            <mxPoint x="230" y="646.5" as="sourcePoint" />
            <mxPoint x="300" y="646.5" as="targetPoint" />
          </mxGeometry>
        </mxCell>
        <mxCell id="MKfOO1UCG0V61yar5A6D-6" value="&lt;font style=&quot;font-size: 15px;&quot;&gt;&lt;b&gt;gRPC&lt;/b&gt;&lt;/font&gt;" style="text;html=1;strokeColor=none;fillColor=none;align=center;verticalAlign=middle;whiteSpace=wrap;rounded=0;" parent="1" vertex="1">
          <mxGeometry x="306" y="632.5" width="45" height="25" as="geometry" />
        </mxCell>
        <mxCell id="VCO2pFkmz6pVRNsTNrjf-7" value="" style="group" vertex="1" connectable="0" parent="1">
          <mxGeometry x="240" y="180" width="145" height="250" as="geometry" />
        </mxCell>
        <mxCell id="bcFj_FvfjHGWvFLV_pOK-15" value="" style="rounded=1;whiteSpace=wrap;html=1;dashed=1;dashPattern=12 12;" parent="VCO2pFkmz6pVRNsTNrjf-7" vertex="1">
          <mxGeometry width="145" height="250" as="geometry" />
        </mxCell>
        <mxCell id="VCO2pFkmz6pVRNsTNrjf-3" style="rounded=0;orthogonalLoop=1;jettySize=auto;html=1;entryX=0.5;entryY=0;entryDx=0;entryDy=0;fillColor=#dae8fc;strokeColor=#6c8ebf;strokeWidth=2;" edge="1" parent="VCO2pFkmz6pVRNsTNrjf-7">
          <mxGeometry relative="1" as="geometry">
            <mxPoint x="95" y="132" as="sourcePoint" />
            <mxPoint x="95" y="180" as="targetPoint" />
          </mxGeometry>
        </mxCell>
        <mxCell id="VCO2pFkmz6pVRNsTNrjf-4" value="Data" style="edgeLabel;html=1;align=center;verticalAlign=middle;resizable=0;points=[];" vertex="1" connectable="0" parent="VCO2pFkmz6pVRNsTNrjf-3">
          <mxGeometry x="-0.3131" y="-2" relative="1" as="geometry">
            <mxPoint as="offset" />
          </mxGeometry>
        </mxCell>
        <mxCell id="bcFj_FvfjHGWvFLV_pOK-16" value="Service 1" style="rounded=0;whiteSpace=wrap;html=1;" parent="VCO2pFkmz6pVRNsTNrjf-7" vertex="1">
          <mxGeometry x="10" y="71" width="120" height="60" as="geometry" />
        </mxCell>
        <mxCell id="VCO2pFkmz6pVRNsTNrjf-2" value="" style="sketch=0;html=1;dashed=0;whitespace=wrap;fillColor=#2875E2;strokeColor=#ffffff;points=[[0.005,0.63,0],[0.1,0.2,0],[0.9,0.2,0],[0.5,0,0],[0.995,0.63,0],[0.72,0.99,0],[0.5,1,0],[0.28,0.99,0]];verticalLabelPosition=bottom;align=center;verticalAlign=top;shape=mxgraph.kubernetes.icon;prIcon=pod" vertex="1" parent="VCO2pFkmz6pVRNsTNrjf-7">
          <mxGeometry x="5" y="10" width="50" height="48" as="geometry" />
        </mxCell>
        <mxCell id="VCO2pFkmz6pVRNsTNrjf-8" value="" style="group" vertex="1" connectable="0" parent="1">
          <mxGeometry x="457.5" y="180" width="145" height="250" as="geometry" />
        </mxCell>
        <mxCell id="VCO2pFkmz6pVRNsTNrjf-9" value="" style="rounded=1;whiteSpace=wrap;html=1;dashed=1;dashPattern=12 12;" vertex="1" parent="VCO2pFkmz6pVRNsTNrjf-8">
          <mxGeometry width="145" height="250" as="geometry" />
        </mxCell>
        <mxCell id="VCO2pFkmz6pVRNsTNrjf-10" style="rounded=0;orthogonalLoop=1;jettySize=auto;html=1;entryX=0.5;entryY=0;entryDx=0;entryDy=0;fillColor=#dae8fc;strokeColor=#6c8ebf;strokeWidth=2;" edge="1" parent="VCO2pFkmz6pVRNsTNrjf-8">
          <mxGeometry relative="1" as="geometry">
            <mxPoint x="95" y="132" as="sourcePoint" />
            <mxPoint x="95" y="180" as="targetPoint" />
          </mxGeometry>
        </mxCell>
        <mxCell id="VCO2pFkmz6pVRNsTNrjf-11" value="Data" style="edgeLabel;html=1;align=center;verticalAlign=middle;resizable=0;points=[];" vertex="1" connectable="0" parent="VCO2pFkmz6pVRNsTNrjf-10">
          <mxGeometry x="-0.3131" y="-2" relative="1" as="geometry">
            <mxPoint as="offset" />
          </mxGeometry>
        </mxCell>
        <mxCell id="VCO2pFkmz6pVRNsTNrjf-12" value="Service 2" style="rounded=0;whiteSpace=wrap;html=1;" vertex="1" parent="VCO2pFkmz6pVRNsTNrjf-8">
          <mxGeometry x="10" y="71" width="120" height="60" as="geometry" />
        </mxCell>
        <mxCell id="VCO2pFkmz6pVRNsTNrjf-13" value="" style="sketch=0;html=1;dashed=0;whitespace=wrap;fillColor=#2875E2;strokeColor=#ffffff;points=[[0.005,0.63,0],[0.1,0.2,0],[0.9,0.2,0],[0.5,0,0],[0.995,0.63,0],[0.72,0.99,0],[0.5,1,0],[0.28,0.99,0]];verticalLabelPosition=bottom;align=center;verticalAlign=top;shape=mxgraph.kubernetes.icon;prIcon=pod" vertex="1" parent="VCO2pFkmz6pVRNsTNrjf-8">
          <mxGeometry x="5" y="10" width="50" height="48" as="geometry" />
        </mxCell>
        <mxCell id="VCO2pFkmz6pVRNsTNrjf-14" style="edgeStyle=orthogonalEdgeStyle;rounded=0;orthogonalLoop=1;jettySize=auto;html=1;fillColor=#dae8fc;strokeColor=#6c8ebf;strokeWidth=2;" edge="1" parent="1" source="VCO2pFkmz6pVRNsTNrjf-16" target="VCO2pFkmz6pVRNsTNrjf-12">
          <mxGeometry relative="1" as="geometry">
            <Array as="points">
              <mxPoint x="502.5" y="350" />
              <mxPoint x="502.5" y="350" />
            </Array>
          </mxGeometry>
        </mxCell>
        <mxCell id="VCO2pFkmz6pVRNsTNrjf-15" value="Request" style="edgeLabel;html=1;align=center;verticalAlign=middle;resizable=0;points=[];fontSize=13;" vertex="1" connectable="0" parent="VCO2pFkmz6pVRNsTNrjf-14">
          <mxGeometry x="-0.2976" relative="1" as="geometry">
            <mxPoint x="-2" y="-7" as="offset" />
          </mxGeometry>
        </mxCell>
        <mxCell id="VCO2pFkmz6pVRNsTNrjf-16" value="Sidecar" style="rounded=0;whiteSpace=wrap;html=1;" vertex="1" parent="1">
          <mxGeometry x="467.5" y="359" width="120" height="60" as="geometry" />
        </mxCell>
        <mxCell id="VCO2pFkmz6pVRNsTNrjf-26" value="" style="group" vertex="1" connectable="0" parent="1">
          <mxGeometry x="670" y="180" width="145" height="250" as="geometry" />
        </mxCell>
        <mxCell id="VCO2pFkmz6pVRNsTNrjf-27" value="" style="rounded=1;whiteSpace=wrap;html=1;dashed=1;dashPattern=12 12;" vertex="1" parent="VCO2pFkmz6pVRNsTNrjf-26">
          <mxGeometry width="145" height="250" as="geometry" />
        </mxCell>
        <mxCell id="VCO2pFkmz6pVRNsTNrjf-28" style="rounded=0;orthogonalLoop=1;jettySize=auto;html=1;entryX=0.5;entryY=0;entryDx=0;entryDy=0;fillColor=#dae8fc;strokeColor=#6c8ebf;strokeWidth=2;" edge="1" parent="VCO2pFkmz6pVRNsTNrjf-26">
          <mxGeometry relative="1" as="geometry">
            <mxPoint x="95" y="132" as="sourcePoint" />
            <mxPoint x="95" y="180" as="targetPoint" />
          </mxGeometry>
        </mxCell>
        <mxCell id="VCO2pFkmz6pVRNsTNrjf-29" value="Data" style="edgeLabel;html=1;align=center;verticalAlign=middle;resizable=0;points=[];" vertex="1" connectable="0" parent="VCO2pFkmz6pVRNsTNrjf-28">
          <mxGeometry x="-0.3131" y="-2" relative="1" as="geometry">
            <mxPoint as="offset" />
          </mxGeometry>
        </mxCell>
        <mxCell id="VCO2pFkmz6pVRNsTNrjf-30" value="Service 3" style="rounded=0;whiteSpace=wrap;html=1;" vertex="1" parent="VCO2pFkmz6pVRNsTNrjf-26">
          <mxGeometry x="10" y="71" width="120" height="60" as="geometry" />
        </mxCell>
        <mxCell id="VCO2pFkmz6pVRNsTNrjf-31" value="" style="sketch=0;html=1;dashed=0;whitespace=wrap;fillColor=#2875E2;strokeColor=#ffffff;points=[[0.005,0.63,0],[0.1,0.2,0],[0.9,0.2,0],[0.5,0,0],[0.995,0.63,0],[0.72,0.99,0],[0.5,1,0],[0.28,0.99,0]];verticalLabelPosition=bottom;align=center;verticalAlign=top;shape=mxgraph.kubernetes.icon;prIcon=pod" vertex="1" parent="VCO2pFkmz6pVRNsTNrjf-26">
          <mxGeometry x="5" y="10" width="50" height="48" as="geometry" />
        </mxCell>
        <mxCell id="VCO2pFkmz6pVRNsTNrjf-32" style="edgeStyle=orthogonalEdgeStyle;rounded=0;orthogonalLoop=1;jettySize=auto;html=1;fillColor=#dae8fc;strokeColor=#6c8ebf;strokeWidth=2;" edge="1" parent="1" source="VCO2pFkmz6pVRNsTNrjf-34" target="VCO2pFkmz6pVRNsTNrjf-30">
          <mxGeometry relative="1" as="geometry">
            <Array as="points">
              <mxPoint x="715" y="350" />
              <mxPoint x="715" y="350" />
            </Array>
          </mxGeometry>
        </mxCell>
        <mxCell id="VCO2pFkmz6pVRNsTNrjf-33" value="Request" style="edgeLabel;html=1;align=center;verticalAlign=middle;resizable=0;points=[];fontSize=13;" vertex="1" connectable="0" parent="VCO2pFkmz6pVRNsTNrjf-32">
          <mxGeometry x="-0.2976" relative="1" as="geometry">
            <mxPoint x="-2" y="-7" as="offset" />
          </mxGeometry>
        </mxCell>
        <mxCell id="VCO2pFkmz6pVRNsTNrjf-34" value="Sidecar" style="rounded=0;whiteSpace=wrap;html=1;" vertex="1" parent="1">
          <mxGeometry x="680" y="359" width="120" height="60" as="geometry" />
        </mxCell>
        <mxCell id="VCO2pFkmz6pVRNsTNrjf-35" style="edgeStyle=orthogonalEdgeStyle;rounded=0;orthogonalLoop=1;jettySize=auto;html=1;entryX=0;entryY=0.5;entryDx=0;entryDy=0;fillColor=#fff2cc;strokeColor=#d6b656;strokeWidth=2;" edge="1" parent="1" source="D8iI0oHs7c-IDb8tcbXQ-10" target="VCO2pFkmz6pVRNsTNrjf-16">
          <mxGeometry relative="1" as="geometry" />
        </mxCell>
        <mxCell id="VCO2pFkmz6pVRNsTNrjf-36" style="edgeStyle=orthogonalEdgeStyle;rounded=0;orthogonalLoop=1;jettySize=auto;html=1;fillColor=#fff2cc;strokeColor=#d6b656;strokeWidth=2;" edge="1" parent="1" source="VCO2pFkmz6pVRNsTNrjf-16" target="VCO2pFkmz6pVRNsTNrjf-34">
          <mxGeometry relative="1" as="geometry" />
        </mxCell>
        <mxCell id="VCO2pFkmz6pVRNsTNrjf-37" value="" style="endArrow=classic;html=1;rounded=0;entryX=0.5;entryY=1;entryDx=0;entryDy=0;strokeWidth=2;fillColor=#fff2cc;strokeColor=#d6b656;" edge="1" parent="1" source="bcFj_FvfjHGWvFLV_pOK-3" target="D8iI0oHs7c-IDb8tcbXQ-10">
          <mxGeometry relative="1" as="geometry">
            <mxPoint x="490" y="330" as="sourcePoint" />
            <mxPoint x="590" y="330" as="targetPoint" />
          </mxGeometry>
        </mxCell>
        <mxCell id="VCO2pFkmz6pVRNsTNrjf-38" value="" style="shape=message;html=1;outlineConnect=0;" vertex="1" parent="VCO2pFkmz6pVRNsTNrjf-37">
          <mxGeometry width="20" height="14" relative="1" as="geometry">
            <mxPoint x="-10" y="-7" as="offset" />
          </mxGeometry>
        </mxCell>
        <mxCell id="VCO2pFkmz6pVRNsTNrjf-39" value="" style="endArrow=classic;html=1;rounded=0;exitX=0.5;exitY=1;exitDx=0;exitDy=0;entryX=1;entryY=0;entryDx=0;entryDy=0;strokeWidth=2;fillColor=#fff2cc;strokeColor=#d6b656;" edge="1" parent="1" source="VCO2pFkmz6pVRNsTNrjf-34" target="bcFj_FvfjHGWvFLV_pOK-3">
          <mxGeometry relative="1" as="geometry">
            <mxPoint x="540" y="490" as="sourcePoint" />
            <mxPoint x="320" y="429" as="targetPoint" />
          </mxGeometry>
        </mxCell>
        <mxCell id="VCO2pFkmz6pVRNsTNrjf-40" value="" style="shape=message;html=1;outlineConnect=0;" vertex="1" parent="VCO2pFkmz6pVRNsTNrjf-39">
          <mxGeometry width="20" height="14" relative="1" as="geometry">
            <mxPoint x="-10" y="-7" as="offset" />
          </mxGeometry>
        </mxCell>
        <mxCell id="D8iI0oHs7c-IDb8tcbXQ-2" value="messages" parent="0" visible="0" />
        <mxCell id="D8iI0oHs7c-IDb8tcbXQ-3" value="" style="endArrow=classic;html=1;rounded=0;exitX=0.5;exitY=0;exitDx=0;exitDy=0;entryX=0.5;entryY=1;entryDx=0;entryDy=0;fillColor=#fff2cc;strokeColor=#d6b656;strokeWidth=2;" parent="D8iI0oHs7c-IDb8tcbXQ-2" source="bcFj_FvfjHGWvFLV_pOK-3" target="bcFj_FvfjHGWvFLV_pOK-16" edge="1">
          <mxGeometry relative="1" as="geometry">
            <mxPoint x="488" y="492" as="sourcePoint" />
            <mxPoint x="386" y="306" as="targetPoint" />
          </mxGeometry>
        </mxCell>
        <mxCell id="D8iI0oHs7c-IDb8tcbXQ-4" value="" style="shape=message;html=1;outlineConnect=0;" parent="D8iI0oHs7c-IDb8tcbXQ-3" vertex="1">
          <mxGeometry width="20" height="14" relative="1" as="geometry">
            <mxPoint x="13" y="32" as="offset" />
          </mxGeometry>
        </mxCell>
        <mxCell id="D8iI0oHs7c-IDb8tcbXQ-5" value="&lt;font style=&quot;font-size: 14px;&quot;&gt;AMQP&lt;br&gt;data request&lt;br&gt;&lt;/font&gt;" style="text;html=1;strokeColor=none;fillColor=none;align=center;verticalAlign=middle;whiteSpace=wrap;rounded=0;" parent="D8iI0oHs7c-IDb8tcbXQ-2" vertex="1">
          <mxGeometry x="390" y="425" width="45" height="25" as="geometry" />
        </mxCell>
        <mxCell id="D8iI0oHs7c-IDb8tcbXQ-8" value="&lt;font style=&quot;font-size: 14px;&quot;&gt;AMQP&lt;br&gt;Result&lt;br&gt;&lt;/font&gt;" style="text;html=1;strokeColor=none;fillColor=none;align=center;verticalAlign=middle;whiteSpace=wrap;rounded=0;" parent="D8iI0oHs7c-IDb8tcbXQ-2" vertex="1">
          <mxGeometry x="640" y="425" width="45" height="25" as="geometry" />
        </mxCell>
        <mxCell id="D8iI0oHs7c-IDb8tcbXQ-9" value="service3" parent="0" />
        <mxCell id="D8iI0oHs7c-IDb8tcbXQ-12" style="edgeStyle=orthogonalEdgeStyle;rounded=0;orthogonalLoop=1;jettySize=auto;html=1;fillColor=#dae8fc;strokeColor=#6c8ebf;strokeWidth=2;" parent="D8iI0oHs7c-IDb8tcbXQ-9" source="D8iI0oHs7c-IDb8tcbXQ-10" target="bcFj_FvfjHGWvFLV_pOK-16" edge="1">
          <mxGeometry relative="1" as="geometry">
            <Array as="points">
              <mxPoint x="285" y="350" />
              <mxPoint x="285" y="350" />
            </Array>
          </mxGeometry>
        </mxCell>
        <mxCell id="D8iI0oHs7c-IDb8tcbXQ-16" value="Request" style="edgeLabel;html=1;align=center;verticalAlign=middle;resizable=0;points=[];fontSize=13;" parent="D8iI0oHs7c-IDb8tcbXQ-12" vertex="1" connectable="0">
          <mxGeometry x="-0.2976" relative="1" as="geometry">
            <mxPoint x="-2" y="-7" as="offset" />
          </mxGeometry>
        </mxCell>
        <mxCell id="D8iI0oHs7c-IDb8tcbXQ-10" value="Sidecar" style="rounded=0;whiteSpace=wrap;html=1;" parent="D8iI0oHs7c-IDb8tcbXQ-9" vertex="1">
          <mxGeometry x="250" y="359" width="120" height="60" as="geometry" />
        </mxCell>
      </root>
    </mxGraphModel>
  </diagram>
</mxfile>
